# Blender v2.78 (sub 0) OBJ File: ''
# www.blender.org
mtllib untitled.mtl
o Plane
v -0.203835 0.145894 1.173197
v 1.796165 0.258637 1.173197
v -0.203835 0.315712 -0.826803
v 1.796165 0.117678 -0.826803
v -0.203835 0.566961 0.173197
v 0.796165 0.285522 1.173197
v 1.796165 0.253205 0.173197
v 0.796165 0.128884 -0.826803
v 0.796165 1.768869 0.173197
v -0.203835 0.286011 0.673197
v 1.296165 0.326066 1.173197
v 1.796165 0.118809 -0.326803
v 0.296165 0.224912 -0.826803
v -0.203835 0.691717 -0.326803
v 0.296165 0.220662 1.173197
v 1.796165 0.410450 0.673197
v 1.296165 0.117678 -0.826803
v 0.796165 0.520508 -0.326803
v 0.796165 0.768666 0.673197
v 0.296165 0.961138 0.173197
v 1.296165 0.700890 0.173197
v 1.296165 0.807218 0.673197
v 0.296165 0.506054 0.673197
v 0.296165 0.779481 -0.326803
v 1.296165 0.231085 -0.326803
v -0.203835 0.208949 0.923197
v 1.546165 0.307981 1.173197
v 1.796165 0.117678 -0.576803
v 0.046165 0.279040 -0.826803
v -0.203835 0.686187 -0.076803
v 0.546165 0.255904 1.173197
v 1.796165 0.348712 0.423197
v 1.046165 0.117678 -0.826803
v 0.796165 0.260402 -0.576803
v 0.796165 1.178175 0.423197
v 0.046165 0.738867 0.173197
v 1.046165 1.145872 0.173197
v -0.203835 0.418887 0.423197
v 1.046165 0.314020 1.173197
v 1.796165 0.161040 -0.076803
v 0.546165 0.169174 -0.826803
v -0.203835 0.529185 -0.576803
v 0.046165 0.181358 1.173197
v 1.796165 0.365122 0.923197
v 1.546165 0.117678 -0.826803
v 0.796165 0.972717 -0.076803
v 0.796165 0.481030 0.923197
v 0.546165 1.290811 0.173197
v 1.546165 0.424409 0.173197
v 1.296165 0.921289 0.423197
v 1.296165 0.552101 0.923197
v 1.046165 0.848657 0.673197
v 1.546165 0.631125 0.673197
v 0.296165 0.724854 0.423197
v 0.296165 0.319868 0.923197
v 0.046165 0.385241 0.673197
v 0.546165 0.637304 0.673197
v 0.296165 0.458009 -0.576803
v 0.296165 1.042734 -0.076803
v 0.046165 0.776680 -0.326803
v 0.546165 0.677783 -0.326803
v 1.296165 0.125934 -0.576803
v 1.296165 0.428253 -0.076803
v 1.046165 0.361733 -0.326803
v 1.546165 0.147296 -0.326803
v 1.546165 0.264750 -0.076803
v 1.046165 0.659792 -0.076803
v 1.046165 0.175275 -0.576803
v 0.546165 1.169682 -0.076803
v 0.046165 0.857828 -0.076803
v 0.046165 0.519125 -0.576803
v 0.546165 0.399584 0.923197
v 0.046165 0.257978 0.923197
v 0.046165 0.562061 0.423197
v 1.546165 0.488232 0.923197
v 1.046165 0.541745 0.923197
v 1.046165 1.230024 0.423197
v 1.546165 0.597219 0.423197
v 0.546165 0.940594 0.423197
v 0.546165 0.362947 -0.576803
v 1.546165 0.117678 -0.576803
vn 0.0000 1.0000 0.0000
vn 0.2329 0.8152 -0.5303
vn -0.5576 0.3896 0.7331
vn 0.5947 0.7084 -0.3802
vn 0.7897 0.5239 -0.3191
vn 0.0413 0.6641 0.7465
vn 0.5411 0.7870 0.2963
vn -0.5105 0.6629 0.5477
vn -0.2958 0.8094 0.5074
vn -0.2816 0.6615 0.6951
vn 0.1651 0.7163 -0.6779
vn -0.2954 0.7868 -0.5419
vn 0.3147 0.4442 -0.8388
vn 0.0974 0.9867 -0.1300
vn 0.4576 0.6317 -0.6257
vn 0.2442 0.9238 -0.2950
vn 0.3861 0.7807 -0.4913
vn 0.5541 0.6297 -0.5444
vn 0.4408 0.8017 -0.4038
vn 0.4636 0.4914 -0.7373
vn 0.5623 0.3004 -0.7704
vn 0.5972 0.4414 -0.6697
vn 0.1773 0.9205 -0.3482
vn 0.3419 0.7009 -0.6260
vn 0.2969 0.8249 -0.4811
vn -0.0279 0.5519 -0.8335
vn -0.6732 0.7372 -0.0583
vn -0.2598 0.4622 -0.8479
vn -0.4525 0.8817 -0.1334
vn -0.5271 0.7672 0.3655
vn -0.6030 0.7404 0.2970
vn 0.0691 0.7389 -0.6703
vn -0.1139 0.7607 -0.6391
vn 0.0760 0.6517 -0.7547
vn -0.3064 0.7261 0.6156
vn -0.2025 0.8808 0.4279
vn -0.1808 0.8139 0.5521
vn -0.2647 0.8927 0.3648
vn -0.1606 0.9506 0.2656
vn -0.1875 0.9266 0.3259
vn -0.4672 0.7414 0.4817
vn -0.3811 0.7860 0.4868
vn -0.4064 0.7165 0.5669
vn 0.3515 0.7325 0.5830
vn 0.1262 0.7699 0.6256
vn 0.2866 0.8311 0.4766
vn -0.1782 0.6333 0.7531
vn -0.1349 0.7563 0.6402
vn -0.0332 0.7401 0.6717
vn 0.6259 0.5479 0.5551
vn -0.1395 0.5291 0.8370
vn 0.4454 0.6360 0.6302
vn 0.6865 0.5716 -0.4495
vn 0.7027 0.7025 0.1126
vn 0.6777 0.7222 -0.1382
vn -0.5777 0.5296 0.6212
vn -0.4327 0.6235 0.6511
vn -0.3902 0.5288 0.7538
vn 0.2236 0.7413 -0.6329
vn 0.2363 0.6004 -0.7640
vn 0.3227 0.6211 -0.7142
vn 0.0165 0.9997 -0.0165
vn 0.1750 0.9506 -0.2562
vn 0.0568 0.9965 -0.0613
usemtl None
s off
f 81//1 28//1 4//1 45//1
f 80//2 34//2 8//2 41//2
f 79//3 35//3 9//3 48//3
f 78//4 32//4 7//4 49//4
f 77//5 50//5 21//5 37//5
f 76//6 51//6 22//6 52//6
f 75//7 44//7 16//7 53//7
f 74//8 54//8 20//8 36//8
f 73//9 55//9 23//9 56//9
f 72//10 47//10 19//10 57//10
f 71//11 58//11 13//11 29//11
f 70//12 59//12 24//12 60//12
f 69//13 46//13 18//13 61//13
f 68//14 62//14 17//14 33//14
f 67//15 63//15 25//15 64//15
f 66//16 40//16 12//16 65//16
f 63//17 66//17 65//17 25//17
f 21//18 49//18 66//18 63//18
f 49//19 7//19 40//19 66//19
f 46//20 67//20 64//20 18//20
f 9//21 37//21 67//21 46//21
f 37//22 21//22 63//22 67//22
f 34//23 68//23 33//23 8//23
f 18//24 64//24 68//24 34//24
f 64//25 25//25 62//25 68//25
f 59//26 69//26 61//26 24//26
f 20//27 48//27 69//27 59//27
f 48//28 9//28 46//28 69//28
f 30//29 70//29 60//29 14//29
f 5//30 36//30 70//30 30//30
f 36//31 20//31 59//31 70//31
f 42//32 71//32 29//32 3//32
f 14//33 60//33 71//33 42//33
f 60//34 24//34 58//34 71//34
f 55//35 72//35 57//35 23//35
f 15//36 31//36 72//36 55//36
f 31//37 6//37 47//37 72//37
f 26//38 73//38 56//38 10//38
f 1//39 43//39 73//39 26//39
f 43//40 15//40 55//40 73//40
f 38//41 74//41 36//41 5//41
f 10//42 56//42 74//42 38//42
f 56//43 23//43 54//43 74//43
f 51//44 75//44 53//44 22//44
f 11//45 27//45 75//45 51//45
f 27//46 2//46 44//46 75//46
f 47//47 76//47 52//47 19//47
f 6//48 39//48 76//48 47//48
f 39//49 11//49 51//49 76//49
f 35//50 77//50 37//50 9//50
f 19//51 52//51 77//51 35//51
f 52//52 22//52 50//52 77//52
f 50//53 78//53 49//53 21//53
f 22//54 53//54 78//54 50//54
f 53//55 16//55 32//55 78//55
f 54//56 79//56 48//56 20//56
f 23//57 57//57 79//57 54//57
f 57//58 19//58 35//58 79//58
f 58//59 80//59 41//59 13//59
f 24//60 61//60 80//60 58//60
f 61//61 18//61 34//61 80//61
f 62//62 81//62 45//62 17//62
f 25//63 65//63 81//63 62//63
f 65//64 12//64 28//64 81//64
